<svg width="128" height="128" xmlns="http://www.w3.org/2000/svg">
 <metadata>image/svg+xmlOpenclipartftgo2011-01-31T02:11:48Originally uploaded by Danny Allen for OCAL 0.18 this icon is part of the flat themehttps://openclipart.org/detail/115291/ftgo-by-anonymousAnonymousflaticontheme</metadata>

 <g>
  <title>background</title>
  <rect x="-1" y="-1" width="130" height="130" id="canvas_background" fill="none"/>
 </g>
 <g>
  <title>Layer 1</title>
  <g stroke="null" id="svg_1">
   <path stroke="null" id="path829" d="m58.429779,71.446345l0,-62.906916c0,-2.318989 0.841496,-4.250892 2.524487,-5.79659c1.682488,-1.545247 3.854328,-2.318085 6.515043,-2.318085c2.661219,0 4.81354,0.720233 6.45694,2.160293c1.682488,1.440037 2.523983,3.424522 2.523983,5.953477l0,23.497942l29.583942,-28.555853c2.073668,-2.03709 4.402288,-3.05586 6.984877,-3.05586c2.386723,0 4.460894,0.737776 6.222036,2.212875c1.799675,1.44006 2.699778,3.336878 2.699778,5.690047c0,1.334828 -0.469331,2.652136 -1.408495,3.951473c-0.939165,1.264704 -2.445833,2.82747 -4.520029,4.689226l-22.715748,20.284246l27.764219,26.290802c1.604337,1.369461 2.837013,2.704289 3.697549,4.004055c0.900077,1.264274 1.350392,2.669249 1.350392,4.214925c0,2.458831 -0.900102,4.337677 -2.700281,5.637443c-1.800204,1.264251 -4.030651,1.896818 -6.691366,1.896818c-1.565275,0 -2.993817,-0.386634 -4.2851,-1.159042c-1.25222,-0.772838 -2.856557,-2.072626 -4.813037,-3.898868l-31.168735,-30.558309l0,27.765902c0,2.212898 -0.841496,4.074202 -2.523983,5.584838c-1.682488,1.510184 -3.834809,2.26548 -6.45694,2.26548c-2.621652,0 -4.793493,-0.720233 -6.515043,-2.160271c-1.682991,-1.44006 -2.524487,-3.336878 -2.524487,-5.690047z" fill="#ff0000" stroke-width="1pt"/>
   <path stroke="#ff0000" id="path705" d="m14.267149,102.094266l11.546286,10.85753l18.694491,-11.355816l14.844999,5.927051l4.951003,19.453061l15.81431,0.006556l4.528794,-20.102153l14.842808,-5.284515l18.6923,10.85753l8.801956,-10.85753l-21.219658,-17.964737c-54.37565,44.761059 -101.364966,-24.232734 -54.659061,-53.098269l0,-10.364466l-5.498131,2.467851l-17.044392,-9.725886l-11.774164,8.678812l10.674115,16.345952l-6.047425,13.326691l-20.829611,3.101208l-0.064273,14.168546l21.443179,4.937012l5.910819,12.955611l-13.608344,15.669959z" fill="#ff0000" stroke-width="1.293" stroke-linecap="round" fill-rule="evenodd" stroke-linejoin="round"/>
  </g>
 </g>
</svg>